<?xml version="1.0" encoding="UTF-8"?>
<svg version="1.1" xmlns="http://www.w3.org/2000/svg" width="50" height="50">
<path d="M0 0 C1.98 0 3.96 0 6 0 C6 1.32 6 2.64 6 4 C7.1446875 4.37125 7.1446875 4.37125 8.3125 4.75 C11.38760062 6.18027936 12.29461916 7.10231852 14 10 C14.40625 12.98828125 14.40625 12.98828125 14.5 16.3125 C14.78263578 21.67055286 15.62280712 25.24561424 18 30 C18 30.99 18 31.98 18 33 C8.1 33 -1.8 33 -12 33 C-11 28 -11 28 -9.9609375 25.59375 C-8.45661808 21.53331058 -8.64941679 17.45003502 -8.5390625 13.15625 C-7.89498367 9.38512179 -6.65343435 7.70768672 -4 5 C-1.75 4.1875 -1.75 4.1875 0 4 C0 2.68 0 1.36 0 0 Z " fill="#F95151" transform="translate(22,6)"/>
<path d="M0 0 C3 1 3 1 4.16796875 3.12890625 C5.14548005 6.50200864 5.30106348 9.4264895 5.3125 12.9375 C5.32925781 14.12214844 5.34601562 15.30679687 5.36328125 16.52734375 C4.96852257 20.30089716 3.88752892 22.73791176 2 26 C1.01 25.67 0.02 25.34 -1 25 C-0.67 24.2575 -0.34 23.515 0 22.75 C1.89726823 15.63524413 2.03043931 7.81848846 -1 1 C-0.67 0.67 -0.34 0.34 0 0 Z " fill="#FA5252" transform="translate(45,9)"/>
<path d="M0 0 C0.99 0.33 1.98 0.66 3 1 C2.67 1.7425 2.34 2.485 2 3.25 C0.10273177 10.36475587 -0.03043931 18.18151154 3 25 C1.68 25 0.36 25 -1 25 C-2.9359963 20.91975282 -3.29784538 17.56146694 -3.3125 13.0625 C-3.32925781 11.87785156 -3.34601563 10.69320313 -3.36328125 9.47265625 C-2.96852257 5.69910284 -1.88752892 3.26208824 0 0 Z " fill="#FA5252" transform="translate(3,9)"/>
<path d="M0 0 C1.9375 0.3125 1.9375 0.3125 4 1 C5.06385483 4.19156448 5.16677982 6.58497476 5.1875 9.9375 C5.20167969 10.97777344 5.21585938 12.01804687 5.23046875 13.08984375 C5.00392282 15.95046613 4.47733619 17.57670151 3 20 C2.01 20 1.02 20 0 20 C0.165 19.38125 0.33 18.7625 0.5 18.125 C1.4545776 12.15889001 1.56552033 5.87070123 0 0 Z " fill="#FA5252" transform="translate(40,12)"/>
<path d="M0 0 C0.99 0 1.98 0 3 0 C2.835 0.61875 2.67 1.2375 2.5 1.875 C1.5454224 7.84110999 1.43447967 14.12929877 3 20 C1.0625 19.6875 1.0625 19.6875 -1 19 C-2.06385483 15.80843552 -2.16677982 13.41502524 -2.1875 10.0625 C-2.20167969 9.02222656 -2.21585937 7.98195313 -2.23046875 6.91015625 C-2.00392282 4.04953387 -1.47733619 2.42329849 0 0 Z " fill="#FA5353" transform="translate(7,12)"/>
<path d="M0 0 C3.3 0 6.6 0 10 0 C9.01 1.485 9.01 1.485 8 3 C5 3.375 5 3.375 2 3 C1.34 2.01 0.68 1.02 0 0 Z " fill="#F95151" transform="translate(20,41)"/>
</svg>
