<?xml version="1.0" encoding="utf-8"?><!-- Uploaded to: SVG Repo, www.svgrepo.com, Generator: SVG Repo Mixer Tools -->
<svg width="800px" height="800px" viewBox="0 -0.5 25 25" fill="none" xmlns="http://www.w3.org/2000/svg">
<path fill-rule="evenodd" clip-rule="evenodd" d="M7.385 6.67244L11.029 3.52744C11.8836 2.82419 13.1164 2.82419 13.971 3.52744L17.615 6.67244C17.9887 6.98222 18.2079 7.44011 18.215 7.92544L18.5 18.0004C18.5 19.6573 17.1569 21.0004 15.5 21.0004H9.5C7.84315 21.0004 6.5 19.6573 6.5 18.0004L6.782 7.92544C6.78982 7.43962 7.01021 6.98165 7.385 6.67244Z" stroke="#000000" stroke-width="1.5" stroke-linecap="round" stroke-linejoin="round"/>
<path d="M10.5 13.2504C10.0858 13.2504 9.75 13.5862 9.75 14.0004C9.75 14.4147 10.0858 14.7504 10.5 14.7504V13.2504ZM14.5 14.7504C14.9142 14.7504 15.25 14.4147 15.25 14.0004C15.25 13.5862 14.9142 13.2504 14.5 13.2504V14.7504ZM9.5 16.2504C9.08579 16.2504 8.75 16.5862 8.75 17.0004C8.75 17.4147 9.08579 17.7504 9.5 17.7504V16.2504ZM15.5 17.7504C15.9142 17.7504 16.25 17.4147 16.25 17.0004C16.25 16.5862 15.9142 16.2504 15.5 16.2504V17.7504ZM11 8.50045L11.75 8.50078L11 8.50045ZM12.208 7.02982L12.062 6.29417L12.208 7.02982ZM13.886 7.92764L13.193 8.21438V8.21438L13.886 7.92764ZM13.3329 9.74862L12.9165 9.12487L13.3329 9.74862ZM11.439 9.56144L10.9085 10.0916L11.439 9.56144ZM10.5 14.7504H14.5V13.2504H10.5V14.7504ZM9.5 17.7504H15.5V16.2504H9.5V17.7504ZM11.75 8.50078C11.7502 8.14299 12.003 7.83513 12.354 7.76547L12.062 6.29417C11.0091 6.50314 10.2505 7.42672 10.25 8.50011L11.75 8.50078ZM12.354 7.76547C12.7049 7.69582 13.0562 7.88377 13.193 8.21438L14.5791 7.64089C14.1687 6.64905 13.1148 6.08521 12.062 6.29417L12.354 7.76547ZM13.193 8.21438C13.3298 8.54499 13.214 8.9262 12.9165 9.12487L13.7494 10.3724C14.6421 9.77635 14.9894 8.63273 14.5791 7.64089L13.193 8.21438ZM12.9165 9.12487C12.6189 9.32355 12.2224 9.28437 11.9695 9.03128L10.9085 10.0916C11.6673 10.8508 12.8567 10.9684 13.7494 10.3724L12.9165 9.12487ZM11.9695 9.03128C11.8289 8.89056 11.7499 8.69973 11.75 8.50078L10.25 8.50011C10.2497 9.09695 10.4866 9.66944 10.9085 10.0916L11.9695 9.03128Z" fill="#000000"/>
</svg>